<svg width="200px" height="150px" xmlns="http://www.w3.org/2000/svg" viewBox="135.45 -7.90875244140625 229.1 165.8175048828125" preserveAspectRatio="xMidYMid"><defs><filter id="editing-hover" x="-100%" y="-100%" width="300%" height="300%"><feFlood flood-color="rgba(1.9607843137254888%,16.862745098039188%,29.01960784313726%,0)" result="flood"></feFlood><feComposite operator="in" in2="SourceAlpha" in="flood" result="shadow"></feComposite><feOffset dx="-4" dy="-4" in="SourceGraphic" result="offset-1"></feOffset><feOffset dx="4" dy="4" in="shadow" result="offset-2"></feOffset><feMerge><feMergeNode in="offset-2"></feMergeNode><feMergeNode in="offset-1"></feMergeNode></feMerge></filter></defs><g filter="url(#editing-hover)"><g transform="translate(171.45499992370605, 108.1500015258789)"><path d="M11.09-53.47L11.09-5.35L36.36-5.35L36.36 0L5.74 0L5.74-53.47L11.09-53.47ZM64.87-8.98L64.87-8.98Q67.62-12.58 67.62-20.32L67.62-20.32L67.62-20.32Q67.62-28.09 64.87-31.69L64.87-31.69L64.87-31.69Q62.09-35.29 56.03-35.29L56.03-35.29L56.03-35.29Q49.97-35.29 47.23-31.69L47.23-31.69L47.23-31.69Q44.45-28.09 44.45-20.32L44.45-20.32L44.45-20.32Q44.45-12.58 47.23-8.98L47.23-8.98L47.23-8.98Q49.97-5.35 56.03-5.35L56.03-5.35L56.03-5.35Q62.09-5.35 64.87-8.98L64.87-8.98ZM43.34-5.10L43.34-5.10Q39.10-10.16 39.10-20.32L39.10-20.32L39.10-20.32Q39.10-30.48 43.34-35.57L43.34-35.57L43.34-35.57Q47.59-40.63 56.03-40.63L56.03-40.63L56.03-40.63Q64.52-40.63 68.76-35.57L68.76-35.57L68.76-35.57Q72.96-30.48 72.96-20.32L72.96-20.32L72.96-20.32Q72.96-10.16 68.76-5.10L68.76-5.10L68.76-5.10Q64.52 0 56.03 0L56.03 0L56.03 0Q47.59 0 43.34-5.10L43.34-5.10ZM93.85-35.29L93.85-35.29L93.85-35.29Q83.16-35.29 83.16-20.32L83.16-20.32L83.16-20.32Q83.16-5.35 93.85-5.35L93.85-5.35L93.85-5.35Q99.09-5.35 101.82-9.32L101.82-9.32L101.82-9.32Q104.55-13.30 104.55-20.32L104.55-20.32L104.55-20.32Q104.55-27.38 101.82-31.33L101.82-31.33L101.82-31.33Q99.09-35.29 93.85-35.29ZM104.55-4.63L104.55-4.63L104.55-5.95L104.55-5.95Q101.12 0 93.85 0L93.85 0L93.85 0Q77.81 0 77.81-20.32L77.81-20.32L77.81-20.32Q77.81-40.63 93.85-40.63L93.85-40.63L93.85-40.63Q101.12-40.63 104.55-34.68L104.55-34.68L104.55-40.63L109.89-40.63L109.89-4.63L109.89-4.63Q109.89 12.83 94.56 12.83L94.56 12.83L94.56 12.83Q81.38 12.83 78.52 3.03L78.52 3.03L82.98 2.32L82.98 2.32Q85.48 7.49 94.56 7.49L94.56 7.49L94.56 7.49Q104.55 7.49 104.55-4.63ZM143.26-8.98L143.26-8.98Q146-12.58 146-20.32L146-20.32L146-20.32Q146-28.09 143.26-31.69L143.26-31.69L143.26-31.69Q140.48-35.29 134.42-35.29L134.42-35.29L134.42-35.29Q128.36-35.29 125.61-31.69L125.61-31.69L125.61-31.69Q122.83-28.09 122.83-20.32L122.83-20.32L122.83-20.32Q122.83-12.58 125.61-8.98L125.61-8.98L125.61-8.98Q128.36-5.35 134.42-5.35L134.42-5.35L134.42-5.35Q140.48-5.35 143.26-8.98L143.26-8.98ZM121.73-5.10L121.73-5.10Q117.48-10.16 117.48-20.32L117.48-20.32L117.48-20.32Q117.48-30.48 121.73-35.57L121.73-35.57L121.73-35.57Q125.97-40.63 134.42-40.63L134.42-40.63L134.42-40.63Q142.90-40.63 147.14-35.57L147.14-35.57L147.14-35.57Q151.35-30.48 151.35-20.32L151.35-20.32L151.35-20.32Q151.35-10.16 147.14-5.10L147.14-5.10L147.14-5.10Q142.90 0 134.42 0L134.42 0L134.42 0Q125.97 0 121.73-5.10L121.73-5.10Z" fill="#eec36c"></path></g></g><style>text {
  font-size: 64px;
  font-family: Arial Black;
  dominant-baseline: central;
  text-anchor: middle;
}</style></svg>